<svg width="32" height="32" viewBox="0 0 32 32" fill="none" xmlns="http://www.w3.org/2000/svg">
<rect width="32" height="32" rx="9" fill="#6B4EFF"/>
<path d="M15.2784 14.4375H12.7898C12.7443 14.1155 12.6515 13.8295 12.5114 13.5795C12.3712 13.3258 12.1913 13.1098 11.9716 12.9318C11.7519 12.7538 11.4981 12.6174 11.2102 12.5227C10.9261 12.428 10.6174 12.3807 10.2841 12.3807C9.68182 12.3807 9.1572 12.5303 8.71023 12.8295C8.26326 13.125 7.91667 13.5568 7.67045 14.125C7.42424 14.6894 7.30114 15.375 7.30114 16.1818C7.30114 17.0114 7.42424 17.7083 7.67045 18.2727C7.92045 18.8371 8.26894 19.2633 8.71591 19.5511C9.16288 19.839 9.67992 19.983 10.267 19.983C10.5966 19.983 10.9015 19.9394 11.1818 19.8523C11.4659 19.7652 11.7178 19.6383 11.9375 19.4716C12.1572 19.3011 12.339 19.0947 12.483 18.8523C12.6307 18.6098 12.733 18.3333 12.7898 18.0227L15.2784 18.0341C15.214 18.5682 15.053 19.0833 14.7955 19.5795C14.5417 20.072 14.1989 20.5133 13.767 20.9034C13.339 21.2898 12.8277 21.5966 12.233 21.8239C11.642 22.0473 10.9735 22.1591 10.2273 22.1591C9.18939 22.1591 8.26136 21.9242 7.44318 21.4545C6.62879 20.9848 5.98485 20.3049 5.51136 19.4148C5.04167 18.5246 4.80682 17.447 4.80682 16.1818C4.80682 14.9129 5.04545 13.8333 5.52273 12.9432C6 12.053 6.64773 11.375 7.46591 10.9091C8.28409 10.4394 9.20455 10.2045 10.2273 10.2045C10.9015 10.2045 11.5265 10.2992 12.1023 10.4886C12.6818 10.678 13.1951 10.9545 13.642 11.3182C14.089 11.678 14.4527 12.1193 14.733 12.642C15.017 13.1648 15.1989 13.7633 15.2784 14.4375ZM23.3551 13.7102C23.3097 13.2519 23.1146 12.8958 22.7699 12.642C22.4252 12.3883 21.9574 12.2614 21.3665 12.2614C20.965 12.2614 20.6259 12.3182 20.3494 12.4318C20.0729 12.5417 19.8608 12.6951 19.7131 12.892C19.5691 13.089 19.4972 13.3125 19.4972 13.5625C19.4896 13.7708 19.5331 13.9527 19.6278 14.108C19.7263 14.2633 19.8608 14.3977 20.0312 14.5114C20.2017 14.6212 20.3987 14.7178 20.6222 14.8011C20.8456 14.8807 21.0843 14.9489 21.3381 15.0057L22.3835 15.2557C22.8911 15.3693 23.357 15.5208 23.7812 15.7102C24.2055 15.8996 24.5729 16.1326 24.8835 16.4091C25.1941 16.6856 25.4347 17.0114 25.6051 17.3864C25.7794 17.7614 25.8684 18.1913 25.8722 18.6761C25.8684 19.3883 25.6866 20.0057 25.3267 20.5284C24.9706 21.0473 24.4555 21.4508 23.7812 21.7386C23.1108 22.0227 22.3021 22.1648 21.3551 22.1648C20.4157 22.1648 19.5975 22.0208 18.9006 21.733C18.2074 21.4451 17.6657 21.0189 17.2756 20.4545C16.8892 19.8864 16.6866 19.1837 16.6676 18.3466H19.0483C19.0748 18.7367 19.1866 19.0625 19.3835 19.3239C19.5843 19.5814 19.8513 19.7765 20.1847 19.9091C20.5218 20.0379 20.9025 20.1023 21.3267 20.1023C21.7434 20.1023 22.1051 20.0417 22.4119 19.9205C22.7225 19.7992 22.9631 19.6307 23.1335 19.4148C23.304 19.1989 23.3892 18.9508 23.3892 18.6705C23.3892 18.4091 23.3116 18.1894 23.1562 18.0114C23.0047 17.8333 22.7813 17.6818 22.4858 17.5568C22.1941 17.4318 21.8362 17.3182 21.4119 17.2159L20.1449 16.8977C19.1638 16.6591 18.3892 16.286 17.821 15.7784C17.2528 15.2708 16.9706 14.5871 16.9744 13.7273C16.9706 13.0227 17.1581 12.4072 17.5369 11.8807C17.9195 11.3542 18.4441 10.9432 19.1108 10.6477C19.7775 10.3523 20.535 10.2045 21.3835 10.2045C22.2472 10.2045 23.0009 10.3523 23.6449 10.6477C24.2926 10.9432 24.7964 11.3542 25.1562 11.8807C25.5161 12.4072 25.7017 13.017 25.7131 13.7102H23.3551Z" fill="#E7E7FF"/>
</svg>
